# xmcd
#
# Track frame offsets:
#	150
#	13348
#	26728
#	44747
#	61053
#	77345
#	89642
#	108241
#	122467
#	141334
#	153401
#	169319
#	179841
#
# Disc length: 2588 seconds
# Revision: 0
# Processed by: cddbd v1.5.2PL0 Copyright (c) Steve Scherf et al.
# Submitted via: dBpowerAMP V12.0
#
DISCID=b20a1a0d
DTITLE=Carolina Blue - I Hear Bluegrass Calling Me
DYEAR=2019
DGENRE=Bluegrass
TTITLE0=I Hear Bluegrass Calling Me
TTITLE1=Cold, Lonely and Blue
TTITLE2=Longing For Home
TTITLE3=Rusty Rails
TTITLE4=Mary Do You Wonder
TTITLE5=Glory Bound Train
TTITLE6=Dark Mountainside
TTITLE7=Mountain Flower
TTITLE8=Bluegrass Melodies
TTITLE9=Breaking Up Rocks
TTITLE10=I'll Meet Her in Heaven
TTITLE11=Fried Taters and Onions
TTITLE12=Sometimes Good Girls Go Bad
EXTD=
EXTT0=
EXTT1=
EXTT2=
EXTT3=
EXTT4=
EXTT5=
EXTT6=
EXTT7=
EXTT8=
EXTT9=
EXTT10=
EXTT11=
EXTT12=
PLAYORDER=
